<mxfile host="app.diagrams.net" modified="2022-04-18T18:31:55.200Z" agent="5.0 (Windows NT 10.0; Win64; x64) AppleWebKit/537.36 (KHTML, like Gecko) Chrome/100.0.4896.127 Safari/537.36" etag="Fh4iWa7Zom4gel59JrGO" version="17.4.5" type="github">
  <diagram id="YHurzEtavkyvxr_iKz3o" name="Page-1">
    <mxGraphModel dx="387" dy="493" grid="1" gridSize="10" guides="1" tooltips="1" connect="1" arrows="1" fold="1" page="1" pageScale="1" pageWidth="827" pageHeight="1169" math="0" shadow="0">
      <root>
        <mxCell id="0" />
        <mxCell id="1" parent="0" />
        <mxCell id="VtUjFZLmEEogxEKN1-pD-1" value="" style="rounded=0;whiteSpace=wrap;html=1;" vertex="1" parent="1">
          <mxGeometry x="80" y="40" width="240" height="240" as="geometry" />
        </mxCell>
        <mxCell id="VtUjFZLmEEogxEKN1-pD-2" value="Header" style="whiteSpace=wrap;html=1;align=center;" vertex="1" parent="1">
          <mxGeometry x="150" y="50" width="100" height="40" as="geometry" />
        </mxCell>
        <mxCell id="VtUjFZLmEEogxEKN1-pD-3" value="Ticket List" style="swimlane;fontStyle=0;childLayout=stackLayout;horizontal=1;startSize=26;horizontalStack=0;resizeParent=1;resizeParentMax=0;resizeLast=0;collapsible=1;marginBottom=0;align=center;fontSize=14;" vertex="1" parent="1">
          <mxGeometry x="100" y="90" width="200" height="116" as="geometry" />
        </mxCell>
        <mxCell id="VtUjFZLmEEogxEKN1-pD-4" value="Ticket&#xa;clicking on a ticket will sho tickets detal" style="text;strokeColor=none;fillColor=none;spacingLeft=4;spacingRight=4;overflow=hidden;rotatable=0;points=[[0,0.5],[1,0.5]];portConstraint=eastwest;fontSize=12;labelBorderColor=default;" vertex="1" parent="VtUjFZLmEEogxEKN1-pD-3">
          <mxGeometry y="26" width="200" height="30" as="geometry" />
        </mxCell>
        <mxCell id="VtUjFZLmEEogxEKN1-pD-5" value="Ticket" style="text;strokeColor=none;fillColor=none;spacingLeft=4;spacingRight=4;overflow=hidden;rotatable=0;points=[[0,0.5],[1,0.5]];portConstraint=eastwest;fontSize=12;labelBorderColor=default;" vertex="1" parent="VtUjFZLmEEogxEKN1-pD-3">
          <mxGeometry y="56" width="200" height="30" as="geometry" />
        </mxCell>
        <mxCell id="VtUjFZLmEEogxEKN1-pD-6" value="Ticket" style="text;strokeColor=none;fillColor=none;spacingLeft=4;spacingRight=4;overflow=hidden;rotatable=0;points=[[0,0.5],[1,0.5]];portConstraint=eastwest;fontSize=12;labelBorderColor=default;" vertex="1" parent="VtUjFZLmEEogxEKN1-pD-3">
          <mxGeometry y="86" width="200" height="30" as="geometry" />
        </mxCell>
        <mxCell id="VtUjFZLmEEogxEKN1-pD-7" value="Add Ticket&lt;br&gt;clicking on this button will show a form for submitting a ticket" style="whiteSpace=wrap;html=1;align=center;labelBorderColor=none;" vertex="1" parent="1">
          <mxGeometry x="100" y="220" width="200" height="40" as="geometry" />
        </mxCell>
      </root>
    </mxGraphModel>
  </diagram>
</mxfile>
